<svg xmlns="http://www.w3.org/2000/svg" viewBox="0 0 900 500" font-family="JetBrains Mono, Inter, sans-serif">
  <defs>
  </defs>

  <rect width="900" height="500" fill="#0B1120" rx="12" stroke="#1A2A40" stroke-width="1"/>

  <!-- Title -->
  <text x="450" y="38" text-anchor="middle" fill="#F8FAFB" font-size="22" font-weight="700">Framework Comparison: 6-Axis Radar</text>
  <text x="450" y="60" text-anchor="middle" fill="#94A3B8" font-size="13">ai-engineering vs alternatives across key dimensions</text>

  <!-- Radar center at (350, 280), radius levels: 60, 120, 180 -->
  <!-- Axes: Enforcement (top), Simplicity (top-right), Multi-IDE (bottom-right), Audit (bottom), Risk Mgmt (bottom-left), Multi-Agent (top-left) -->

  <!-- Grid lines - level 1 (r=60) -->
  <polygon points="350,220 401.96,250 401.96,310 350,340 298.04,310 298.04,250" fill="none" stroke="#1A2A40" stroke-width="0.8"/>
  <!-- Grid lines - level 2 (r=120) -->
  <polygon points="350,160 453.92,220 453.92,340 350,400 246.08,340 246.08,220" fill="none" stroke="#1A2A40" stroke-width="0.8"/>
  <!-- Grid lines - level 3 (r=180) -->
  <polygon points="350,100 505.88,190 505.88,370 350,460 194.12,370 194.12,190" fill="none" stroke="#1A2A40" stroke-width="1"/>

  <!-- Axis lines -->
  <line x1="350" y1="280" x2="350" y2="100" stroke="#1A2A40" stroke-width="1"/>
  <line x1="350" y1="280" x2="505.88" y2="190" stroke="#1A2A40" stroke-width="1"/>
  <line x1="350" y1="280" x2="505.88" y2="370" stroke="#1A2A40" stroke-width="1"/>
  <line x1="350" y1="280" x2="350" y2="460" stroke="#1A2A40" stroke-width="1"/>
  <line x1="350" y1="280" x2="194.12" y2="370" stroke="#1A2A40" stroke-width="1"/>
  <line x1="350" y1="280" x2="194.12" y2="190" stroke="#1A2A40" stroke-width="1"/>

  <!-- Axis labels -->
  <text x="350" y="85" text-anchor="middle" fill="#F8FAFB" font-size="12" font-weight="700">Enforcement</text>
  <text x="520" y="185" fill="#F8FAFB" font-size="12" font-weight="700">Simplicity</text>
  <text x="520" y="380" fill="#F8FAFB" font-size="12" font-weight="700">Multi-IDE</text>
  <text x="350" y="478" text-anchor="middle" fill="#F8FAFB" font-size="12" font-weight="700">Audit</text>
  <text x="140" y="380" fill="#F8FAFB" font-size="12" font-weight="700">Risk Mgmt</text>
  <text x="130" y="185" fill="#F8FAFB" font-size="12" font-weight="700">Multi-Agent</text>

  <!-- ai-engineering (score: 10, 8, 9, 10, 10, 7) — mapped to r*score/10 -->
  <!-- Enforcement=10(180), Simplicity=8(144), Multi-IDE=9(162), Audit=10(180), Risk=10(180), Multi-Agent=7(126) -->
  <polygon points="
    350,100
    474.67,208
    490.35,361
    350,460
    194.12,370
    240.88,217
  " fill="#00D4AA" fill-opacity="0.2" stroke="#00D4AA" stroke-width="2.5"/>

  <!-- SpecKit (score: 3, 7, 3, 2, 1, 2) -->
  <polygon points="
    350,226
    440.73,238
    376.0,306
    350,316
    289.36,289
    332.54,269.4
  " fill="#2e6ba4" fill-opacity="0.1" stroke="#2e6ba4" stroke-width="1.5" stroke-dasharray="6,3"/>

  <!-- BMAD (score: 6, 3, 2, 5, 4, 9) -->
  <polygon points="
    350,172
    396.64,253.8
    381.12,296.2
    350,370
    287.6,350.8
    204.44,199.4
  " fill="#7b3fa0" fill-opacity="0.1" stroke="#7b3fa0" stroke-width="1.5" stroke-dasharray="6,3"/>

  <!-- GSD (score: 2, 9, 4, 1, 1, 3) -->
  <polygon points="
    350,244
    490.35,199
    419.48,316
    350,298
    289.36,289
    303.72,252.6
  " fill="#2A4F7A" fill-opacity="0.1" stroke="#2A4F7A" stroke-width="1.5" stroke-dasharray="6,3"/>

  <!-- OpenSpec (score: 4, 5, 5, 3, 3, 4) -->
  <polygon points="
    350,208
    427.96,235
    427.96,325
    350,334
    303.16,334
    272.24,244
  " fill="#1a9e8c" fill-opacity="0.1" stroke="#1a9e8c" stroke-width="1.5" stroke-dasharray="6,3"/>

  <!-- Data point dots for ai-engineering -->
  <circle cx="350" cy="100" r="4" fill="#00D4AA"/>
  <circle cx="474.67" cy="208" r="4" fill="#00D4AA"/>
  <circle cx="490.35" cy="361" r="4" fill="#00D4AA"/>
  <circle cx="350" cy="460" r="4" fill="#00D4AA"/>
  <circle cx="194.12" cy="370" r="4" fill="#00D4AA"/>
  <circle cx="240.88" cy="217" r="4" fill="#00D4AA"/>

  <!-- Legend -->
  <rect x="620" y="95" width="260" height="185" rx="8" fill="#1A2A40" stroke="#1A2A40" stroke-width="1"/>
  <text x="750" y="118" text-anchor="middle" fill="#F8FAFB" font-size="12" font-weight="700">Frameworks</text>

  <line x1="640" y1="140" x2="680" y2="140" stroke="#00D4AA" stroke-width="3"/>
  <text x="690" y="144" fill="#00D4AA" font-size="11" font-weight="700">ai-engineering</text>

  <line x1="640" y1="165" x2="680" y2="165" stroke="#2e6ba4" stroke-width="1.5" stroke-dasharray="6,3"/>
  <text x="690" y="169" fill="#2e6ba4" font-size="11">SpecKit</text>

  <line x1="640" y1="190" x2="680" y2="190" stroke="#7b3fa0" stroke-width="1.5" stroke-dasharray="6,3"/>
  <text x="690" y="194" fill="#7b3fa0" font-size="11">BMAD Method</text>

  <line x1="640" y1="215" x2="680" y2="215" stroke="#2A4F7A" stroke-width="1.5" stroke-dasharray="6,3"/>
  <text x="690" y="219" fill="#2A4F7A" font-size="11">GSD</text>

  <line x1="640" y1="240" x2="680" y2="240" stroke="#1a9e8c" stroke-width="1.5" stroke-dasharray="6,3"/>
  <text x="690" y="244" fill="#1a9e8c" font-size="11">OpenSpec</text>

  <text x="750" y="270" text-anchor="middle" fill="#94A3B8" font-size="9">Scale: 0 (center) to 10 (edge)</text>
</svg>